<mxfile host="app.diagrams.net" agent="Mozilla/5.0 (Macintosh; Intel Mac OS X 10.15; rv:141.0) Gecko/20100101 Firefox/141.0" version="28.0.7">
  <diagram name="Page-1" id="FbYnH1N48sVwJLBt_o49">
    <mxGraphModel dx="1018" dy="698" grid="1" gridSize="10" guides="1" tooltips="1" connect="1" arrows="1" fold="1" page="1" pageScale="1" pageWidth="850" pageHeight="1100" math="0" shadow="0">
      <root>
        <mxCell id="0" />
        <mxCell id="1" parent="0" />
        <mxCell id="IPwQw8q9HVp6xd_4X94O-26" value="GameEngine" style="swimlane;fontStyle=1;align=center;verticalAlign=top;childLayout=stackLayout;horizontal=1;startSize=26;horizontalStack=0;resizeParent=1;resizeParentMax=0;resizeLast=0;collapsible=1;marginBottom=0;whiteSpace=wrap;html=1;" vertex="1" parent="1">
          <mxGeometry x="360" y="240" width="80" height="34" as="geometry" />
        </mxCell>
        <mxCell id="IPwQw8q9HVp6xd_4X94O-28" value="" style="line;strokeWidth=1;fillColor=none;align=left;verticalAlign=middle;spacingTop=-1;spacingLeft=3;spacingRight=3;rotatable=0;labelPosition=right;points=[];portConstraint=eastwest;strokeColor=inherit;" vertex="1" parent="IPwQw8q9HVp6xd_4X94O-26">
          <mxGeometry y="26" width="80" height="8" as="geometry" />
        </mxCell>
        <mxCell id="IPwQw8q9HVp6xd_4X94O-30" value="Character" style="swimlane;fontStyle=1;align=center;verticalAlign=top;childLayout=stackLayout;horizontal=1;startSize=26;horizontalStack=0;resizeParent=1;resizeParentMax=0;resizeLast=0;collapsible=1;marginBottom=0;whiteSpace=wrap;html=1;" vertex="1" parent="1">
          <mxGeometry x="360" y="340" width="80" height="34" as="geometry" />
        </mxCell>
        <mxCell id="IPwQw8q9HVp6xd_4X94O-31" value="" style="line;strokeWidth=1;fillColor=none;align=left;verticalAlign=middle;spacingTop=-1;spacingLeft=3;spacingRight=3;rotatable=0;labelPosition=right;points=[];portConstraint=eastwest;strokeColor=inherit;" vertex="1" parent="IPwQw8q9HVp6xd_4X94O-30">
          <mxGeometry y="26" width="80" height="8" as="geometry" />
        </mxCell>
        <mxCell id="IPwQw8q9HVp6xd_4X94O-32" value="Enemy" style="swimlane;fontStyle=1;align=center;verticalAlign=top;childLayout=stackLayout;horizontal=1;startSize=26;horizontalStack=0;resizeParent=1;resizeParentMax=0;resizeLast=0;collapsible=1;marginBottom=0;whiteSpace=wrap;html=1;" vertex="1" parent="1">
          <mxGeometry x="280" y="420" width="80" height="34" as="geometry" />
        </mxCell>
        <mxCell id="IPwQw8q9HVp6xd_4X94O-33" value="" style="line;strokeWidth=1;fillColor=none;align=left;verticalAlign=middle;spacingTop=-1;spacingLeft=3;spacingRight=3;rotatable=0;labelPosition=right;points=[];portConstraint=eastwest;strokeColor=inherit;" vertex="1" parent="IPwQw8q9HVp6xd_4X94O-32">
          <mxGeometry y="26" width="80" height="8" as="geometry" />
        </mxCell>
        <mxCell id="IPwQw8q9HVp6xd_4X94O-34" value="Player" style="swimlane;fontStyle=1;align=center;verticalAlign=top;childLayout=stackLayout;horizontal=1;startSize=26;horizontalStack=0;resizeParent=1;resizeParentMax=0;resizeLast=0;collapsible=1;marginBottom=0;whiteSpace=wrap;html=1;" vertex="1" parent="1">
          <mxGeometry x="440" y="420" width="80" height="34" as="geometry" />
        </mxCell>
        <mxCell id="IPwQw8q9HVp6xd_4X94O-35" value="" style="line;strokeWidth=1;fillColor=none;align=left;verticalAlign=middle;spacingTop=-1;spacingLeft=3;spacingRight=3;rotatable=0;labelPosition=right;points=[];portConstraint=eastwest;strokeColor=inherit;" vertex="1" parent="IPwQw8q9HVp6xd_4X94O-34">
          <mxGeometry y="26" width="80" height="8" as="geometry" />
        </mxCell>
        <mxCell id="IPwQw8q9HVp6xd_4X94O-37" value="" style="endArrow=none;html=1;rounded=0;entryX=0.5;entryY=0;entryDx=0;entryDy=0;exitX=0.5;exitY=0;exitDx=0;exitDy=0;" edge="1" parent="1" source="IPwQw8q9HVp6xd_4X94O-32" target="IPwQw8q9HVp6xd_4X94O-34">
          <mxGeometry width="50" height="50" relative="1" as="geometry">
            <mxPoint x="320" y="420" as="sourcePoint" />
            <mxPoint x="370" y="370" as="targetPoint" />
            <Array as="points">
              <mxPoint x="320" y="400" />
              <mxPoint x="480" y="400" />
            </Array>
          </mxGeometry>
        </mxCell>
        <mxCell id="IPwQw8q9HVp6xd_4X94O-38" value="" style="endArrow=block;endSize=16;endFill=0;html=1;rounded=0;entryX=0.5;entryY=1;entryDx=0;entryDy=0;" edge="1" parent="1" target="IPwQw8q9HVp6xd_4X94O-30">
          <mxGeometry width="160" relative="1" as="geometry">
            <mxPoint x="400" y="400" as="sourcePoint" />
            <mxPoint x="580" y="374" as="targetPoint" />
          </mxGeometry>
        </mxCell>
        <mxCell id="IPwQw8q9HVp6xd_4X94O-39" value="Archer" style="swimlane;fontStyle=1;align=center;verticalAlign=top;childLayout=stackLayout;horizontal=1;startSize=26;horizontalStack=0;resizeParent=1;resizeParentMax=0;resizeLast=0;collapsible=1;marginBottom=0;whiteSpace=wrap;html=1;" vertex="1" parent="1">
          <mxGeometry x="440" y="510" width="80" height="34" as="geometry" />
        </mxCell>
        <mxCell id="IPwQw8q9HVp6xd_4X94O-40" value="" style="line;strokeWidth=1;fillColor=none;align=left;verticalAlign=middle;spacingTop=-1;spacingLeft=3;spacingRight=3;rotatable=0;labelPosition=right;points=[];portConstraint=eastwest;strokeColor=inherit;" vertex="1" parent="IPwQw8q9HVp6xd_4X94O-39">
          <mxGeometry y="26" width="80" height="8" as="geometry" />
        </mxCell>
        <mxCell id="IPwQw8q9HVp6xd_4X94O-41" value="Warrior" style="swimlane;fontStyle=1;align=center;verticalAlign=top;childLayout=stackLayout;horizontal=1;startSize=26;horizontalStack=0;resizeParent=1;resizeParentMax=0;resizeLast=0;collapsible=1;marginBottom=0;whiteSpace=wrap;html=1;" vertex="1" parent="1">
          <mxGeometry x="330" y="510" width="80" height="34" as="geometry" />
        </mxCell>
        <mxCell id="IPwQw8q9HVp6xd_4X94O-42" value="" style="line;strokeWidth=1;fillColor=none;align=left;verticalAlign=middle;spacingTop=-1;spacingLeft=3;spacingRight=3;rotatable=0;labelPosition=right;points=[];portConstraint=eastwest;strokeColor=inherit;" vertex="1" parent="IPwQw8q9HVp6xd_4X94O-41">
          <mxGeometry y="26" width="80" height="8" as="geometry" />
        </mxCell>
        <mxCell id="IPwQw8q9HVp6xd_4X94O-43" value="Mage" style="swimlane;fontStyle=1;align=center;verticalAlign=top;childLayout=stackLayout;horizontal=1;startSize=26;horizontalStack=0;resizeParent=1;resizeParentMax=0;resizeLast=0;collapsible=1;marginBottom=0;whiteSpace=wrap;html=1;" vertex="1" parent="1">
          <mxGeometry x="550" y="510" width="80" height="34" as="geometry" />
        </mxCell>
        <mxCell id="IPwQw8q9HVp6xd_4X94O-44" value="" style="line;strokeWidth=1;fillColor=none;align=left;verticalAlign=middle;spacingTop=-1;spacingLeft=3;spacingRight=3;rotatable=0;labelPosition=right;points=[];portConstraint=eastwest;strokeColor=inherit;" vertex="1" parent="IPwQw8q9HVp6xd_4X94O-43">
          <mxGeometry y="26" width="80" height="8" as="geometry" />
        </mxCell>
        <mxCell id="IPwQw8q9HVp6xd_4X94O-45" value="" style="endArrow=none;html=1;rounded=0;entryX=0.5;entryY=0;entryDx=0;entryDy=0;exitX=0.5;exitY=0;exitDx=0;exitDy=0;" edge="1" parent="1" source="IPwQw8q9HVp6xd_4X94O-41" target="IPwQw8q9HVp6xd_4X94O-43">
          <mxGeometry width="50" height="50" relative="1" as="geometry">
            <mxPoint x="370" y="510" as="sourcePoint" />
            <mxPoint x="530" y="510" as="targetPoint" />
            <Array as="points">
              <mxPoint x="370" y="490" />
              <mxPoint x="590" y="490" />
            </Array>
          </mxGeometry>
        </mxCell>
        <mxCell id="IPwQw8q9HVp6xd_4X94O-47" value="" style="endArrow=block;endSize=16;endFill=0;html=1;rounded=0;entryX=0.5;entryY=1;entryDx=0;entryDy=0;exitX=0.5;exitY=0;exitDx=0;exitDy=0;" edge="1" parent="1" source="IPwQw8q9HVp6xd_4X94O-39" target="IPwQw8q9HVp6xd_4X94O-34">
          <mxGeometry width="160" relative="1" as="geometry">
            <mxPoint x="410" y="416" as="sourcePoint" />
            <mxPoint x="410" y="390" as="targetPoint" />
          </mxGeometry>
        </mxCell>
        <mxCell id="IPwQw8q9HVp6xd_4X94O-49" value="" style="endArrow=diamondThin;endFill=1;endSize=24;html=1;rounded=0;exitX=0.5;exitY=0;exitDx=0;exitDy=0;entryX=0.5;entryY=1;entryDx=0;entryDy=0;" edge="1" parent="1" source="IPwQw8q9HVp6xd_4X94O-30" target="IPwQw8q9HVp6xd_4X94O-26">
          <mxGeometry width="160" relative="1" as="geometry">
            <mxPoint x="350" y="360" as="sourcePoint" />
            <mxPoint x="510" y="360" as="targetPoint" />
          </mxGeometry>
        </mxCell>
        <mxCell id="IPwQw8q9HVp6xd_4X94O-50" value="AttackStrategy" style="swimlane;fontStyle=1;align=center;verticalAlign=top;childLayout=stackLayout;horizontal=1;startSize=26;horizontalStack=0;resizeParent=1;resizeParentMax=0;resizeLast=0;collapsible=1;marginBottom=0;whiteSpace=wrap;html=1;" vertex="1" parent="1">
          <mxGeometry x="550" y="340" width="100" height="34" as="geometry" />
        </mxCell>
        <mxCell id="IPwQw8q9HVp6xd_4X94O-51" value="" style="line;strokeWidth=1;fillColor=none;align=left;verticalAlign=middle;spacingTop=-1;spacingLeft=3;spacingRight=3;rotatable=0;labelPosition=right;points=[];portConstraint=eastwest;strokeColor=inherit;" vertex="1" parent="IPwQw8q9HVp6xd_4X94O-50">
          <mxGeometry y="26" width="100" height="8" as="geometry" />
        </mxCell>
        <mxCell id="IPwQw8q9HVp6xd_4X94O-52" value="NormalAttack" style="swimlane;fontStyle=1;align=center;verticalAlign=top;childLayout=stackLayout;horizontal=1;startSize=26;horizontalStack=0;resizeParent=1;resizeParentMax=0;resizeLast=0;collapsible=1;marginBottom=0;whiteSpace=wrap;html=1;" vertex="1" parent="1">
          <mxGeometry x="700" y="300" width="100" height="34" as="geometry" />
        </mxCell>
        <mxCell id="IPwQw8q9HVp6xd_4X94O-53" value="" style="line;strokeWidth=1;fillColor=none;align=left;verticalAlign=middle;spacingTop=-1;spacingLeft=3;spacingRight=3;rotatable=0;labelPosition=right;points=[];portConstraint=eastwest;strokeColor=inherit;" vertex="1" parent="IPwQw8q9HVp6xd_4X94O-52">
          <mxGeometry y="26" width="100" height="8" as="geometry" />
        </mxCell>
        <mxCell id="IPwQw8q9HVp6xd_4X94O-54" value="AggressiveAttack" style="swimlane;fontStyle=1;align=center;verticalAlign=top;childLayout=stackLayout;horizontal=1;startSize=26;horizontalStack=0;resizeParent=1;resizeParentMax=0;resizeLast=0;collapsible=1;marginBottom=0;whiteSpace=wrap;html=1;" vertex="1" parent="1">
          <mxGeometry x="700" y="380" width="100" height="34" as="geometry" />
        </mxCell>
        <mxCell id="IPwQw8q9HVp6xd_4X94O-55" value="" style="line;strokeWidth=1;fillColor=none;align=left;verticalAlign=middle;spacingTop=-1;spacingLeft=3;spacingRight=3;rotatable=0;labelPosition=right;points=[];portConstraint=eastwest;strokeColor=inherit;" vertex="1" parent="IPwQw8q9HVp6xd_4X94O-54">
          <mxGeometry y="26" width="100" height="8" as="geometry" />
        </mxCell>
        <mxCell id="IPwQw8q9HVp6xd_4X94O-58" value="" style="endArrow=diamondThin;endFill=1;endSize=24;html=1;rounded=0;exitX=0;exitY=0.5;exitDx=0;exitDy=0;entryX=1;entryY=0.5;entryDx=0;entryDy=0;" edge="1" parent="1" source="IPwQw8q9HVp6xd_4X94O-50" target="IPwQw8q9HVp6xd_4X94O-30">
          <mxGeometry width="160" relative="1" as="geometry">
            <mxPoint x="549" y="356" as="sourcePoint" />
            <mxPoint x="549" y="290" as="targetPoint" />
          </mxGeometry>
        </mxCell>
        <mxCell id="IPwQw8q9HVp6xd_4X94O-59" value="Observer" style="swimlane;fontStyle=1;align=center;verticalAlign=top;childLayout=stackLayout;horizontal=1;startSize=26;horizontalStack=0;resizeParent=1;resizeParentMax=0;resizeLast=0;collapsible=1;marginBottom=0;whiteSpace=wrap;html=1;" vertex="1" parent="1">
          <mxGeometry x="170" y="340" width="80" height="34" as="geometry" />
        </mxCell>
        <mxCell id="IPwQw8q9HVp6xd_4X94O-60" value="" style="line;strokeWidth=1;fillColor=none;align=left;verticalAlign=middle;spacingTop=-1;spacingLeft=3;spacingRight=3;rotatable=0;labelPosition=right;points=[];portConstraint=eastwest;strokeColor=inherit;" vertex="1" parent="IPwQw8q9HVp6xd_4X94O-59">
          <mxGeometry y="26" width="80" height="8" as="geometry" />
        </mxCell>
        <mxCell id="IPwQw8q9HVp6xd_4X94O-61" value="" style="endArrow=diamondThin;endFill=0;endSize=24;html=1;rounded=0;exitX=1;exitY=0.5;exitDx=0;exitDy=0;entryX=0;entryY=0.5;entryDx=0;entryDy=0;" edge="1" parent="1" source="IPwQw8q9HVp6xd_4X94O-59" target="IPwQw8q9HVp6xd_4X94O-30">
          <mxGeometry width="160" relative="1" as="geometry">
            <mxPoint x="190" y="430" as="sourcePoint" />
            <mxPoint x="350" y="430" as="targetPoint" />
          </mxGeometry>
        </mxCell>
        <mxCell id="IPwQw8q9HVp6xd_4X94O-66" value="LowHealthObserver" style="swimlane;fontStyle=1;align=center;verticalAlign=top;childLayout=stackLayout;horizontal=1;startSize=26;horizontalStack=0;resizeParent=1;resizeParentMax=0;resizeLast=0;collapsible=1;marginBottom=0;whiteSpace=wrap;html=1;" vertex="1" parent="1">
          <mxGeometry x="10" y="340" width="110" height="34" as="geometry" />
        </mxCell>
        <mxCell id="IPwQw8q9HVp6xd_4X94O-67" value="" style="line;strokeWidth=1;fillColor=none;align=left;verticalAlign=middle;spacingTop=-1;spacingLeft=3;spacingRight=3;rotatable=0;labelPosition=right;points=[];portConstraint=eastwest;strokeColor=inherit;" vertex="1" parent="IPwQw8q9HVp6xd_4X94O-66">
          <mxGeometry y="26" width="110" height="8" as="geometry" />
        </mxCell>
        <mxCell id="IPwQw8q9HVp6xd_4X94O-69" value="" style="endArrow=block;dashed=1;endFill=0;endSize=12;html=1;rounded=0;" edge="1" parent="1">
          <mxGeometry width="160" relative="1" as="geometry">
            <mxPoint x="120" y="356.5" as="sourcePoint" />
            <mxPoint x="170" y="357" as="targetPoint" />
          </mxGeometry>
        </mxCell>
        <mxCell id="IPwQw8q9HVp6xd_4X94O-70" value="" style="endArrow=block;dashed=1;endFill=0;endSize=12;html=1;rounded=0;entryX=1;entryY=0.5;entryDx=0;entryDy=0;" edge="1" parent="1" target="IPwQw8q9HVp6xd_4X94O-50">
          <mxGeometry width="160" relative="1" as="geometry">
            <mxPoint x="680" y="357" as="sourcePoint" />
            <mxPoint x="210" y="360.5" as="targetPoint" />
          </mxGeometry>
        </mxCell>
        <mxCell id="IPwQw8q9HVp6xd_4X94O-72" value="" style="endArrow=none;dashed=1;html=1;rounded=0;entryX=0;entryY=0.5;entryDx=0;entryDy=0;exitX=0;exitY=0.5;exitDx=0;exitDy=0;" edge="1" parent="1" source="IPwQw8q9HVp6xd_4X94O-54" target="IPwQw8q9HVp6xd_4X94O-52">
          <mxGeometry width="50" height="50" relative="1" as="geometry">
            <mxPoint x="630" y="355" as="sourcePoint" />
            <mxPoint x="680" y="305" as="targetPoint" />
            <Array as="points">
              <mxPoint x="680" y="397" />
              <mxPoint x="680" y="317" />
            </Array>
          </mxGeometry>
        </mxCell>
      </root>
    </mxGraphModel>
  </diagram>
</mxfile>
